<svg xmlns="http://www.w3.org/2000/svg" xmlns:xlink="http://www.w3.org/1999/xlink" id="Layer_1" enable-background="new 0 0 24 24" version="1.1" viewBox="0 0 24 24" xml:space="preserve"><g><path fill="#3C5A9A" d="M21,23H3c-1.1045696,0-2-0.8954296-2-2V3c0-1.1045696,0.8954304-2,2-2h18c1.1045704,0,2,0.8954304,2,2v18 C23,22.1045704,22.1045704,23,21,23z"/><path fill="#FFF" d="M21,1H3C1.8954468,1,1,1.8953857,1,3v0.25c0-1.1046143,0.8954468-2,2-2h18 c1.1045532,0,2,0.8953857,2,2V3C23,1.8953857,22.1045532,1,21,1z" opacity=".2"/><path fill="#FFF" d="M11,23v-8H9.020813v-3H11v-2c0-2.2091675,1.7908325-4,4-4h3v3h-3c-0.5523071,0-1,0.4476929-1,1v2h4l-0.5,3 H14v8H11z"/><path fill="#010101" d="M21,22.75H3c-1.1045532,0-2-0.8954468-2-2V21c0,1.1045532,0.8954468,2,2,2h18 c1.1045532,0,2-0.8954468,2-2v-0.25C23,21.8545532,22.1045532,22.75,21,22.75z" opacity=".1"/><linearGradient id="SVGID_1_" x1="12.543" x2="23.164" y1="11.043" y2="21.664" gradientUnits="userSpaceOnUse"><stop offset="0" style="stop-color:#010101;stop-opacity:.1"/><stop offset="1" style="stop-color:#010101;stop-opacity:0"/></linearGradient><path fill="url(#SVGID_1_)" d="M18,6v3h-3c-0.5523071,0-1,0.4476929-1,1v2h4l-0.5,3H14v8h7c1.1045532,0,2-0.8954468,2-2V10.999939 L18,6z"/><linearGradient id="SVGID_2_" x1="-.653" x2="24.653" y1="6.1" y2="17.9" gradientUnits="userSpaceOnUse"><stop offset="0" style="stop-color:#fff;stop-opacity:.2"/><stop offset="1" style="stop-color:#fff;stop-opacity:0"/></linearGradient><path fill="url(#SVGID_2_)" d="M21,23H3c-1.1045696,0-2-0.8954296-2-2V3c0-1.1045696,0.8954304-2,2-2h18 c1.1045704,0,2,0.8954304,2,2v18C23,22.1045704,22.1045704,23,21,23z"/></g></svg>